# xmcd CD database file
#
# Track frame offsets:
#	150
#	21473
#	41063
#	62385
#
# Disc length: 1088 seconds
#
# Revision: 0
# Processed by: cddbd v1.5.1PL2 Copyright (c) Steve Scherf et al.
# Submitted via: CDex 1.51
#
DISCID=2e043e04
DTITLE=大黒摩季 - 胡蝶の夢
DYEAR=2006
DGENRE=J-Pop
TTITLE0=胡蝶の夢
TTITLE1=青い風
TTITLE2=胡蝶の夢(Instrumental)
TTITLE3=青い風(Instrumental)
EXTD=YEAR: 2006
EXTT0=
EXTT1=
EXTT2=
EXTT3=
PLAYORDER=
